<?xml version="1.0" encoding="UTF-8"?>
<svg id="Layer_2" data-name="Layer 2" xmlns="http://www.w3.org/2000/svg" viewBox="0 0 379.9 44.9">
  <defs>
    <style>
      .cls-1 {
        fill: #1D4ED8;
      }
    </style>
  </defs>
  <g id="Layer_1-2" data-name="Layer 1">
    <g>
      <g>
        <path class="cls-1" d="M126.13,23.01c0-11.5,9.6-21.16,21.08-21.16,5.3.08,10.19,2.33,14.19,6.23l-3.72,5.04c-2.86-2.86-6.59-4.76-10.59-4.76-7.4,0-14.47,6.49-14.47,14.67s7.17,14.6,14.49,14.6c4.18,0,7.78-2.08,10.59-4.87l3.7,5.17c-3.52,3.47-8.01,6.13-14.09,6.13-11.58,0-21.18-9.53-21.18-21.06Z"/>
        <path class="cls-1" d="M176.54,8.87v10.46h15.46v6.39h-15.46v11.3h17.92v6.39h-24.33V2.56h24.33v6.31h-17.92Z"/>
        <path class="cls-1" d="M201.75,36.23l5.07-3.62c1.82,3.19,5.22,5.02,9.15,5.02,4.59,0,8.06-2.2,8.06-5.32,0-3.78-5.37-6.06-10.14-8.11-4.79-2.13-10.11-4.61-10.11-11.02s5.8-11.35,13.15-11.35c5.83,0,10.19,2.81,11.86,7.3l-4.76,3.29c-1.27-2.76-4.08-4.31-7.04-4.31-3.75,0-6.74,2.33-6.74,5.22,0,3.19,3.78,4.33,8.74,6.46,6.46,2.84,11.48,5.95,11.48,12.39,0,7.25-6.28,11.91-14.57,11.91-6.71,0-11.81-3.14-14.14-7.86Z"/>
        <path class="cls-1" d="M233.99,36.23l5.07-3.62c1.82,3.19,5.22,5.02,9.15,5.02,4.59,0,8.06-2.2,8.06-5.32,0-3.78-5.37-6.06-10.14-8.11-4.79-2.13-10.11-4.61-10.11-11.02s5.8-11.35,13.15-11.35c5.83,0,10.19,2.81,11.86,7.3l-4.76,3.29c-1.27-2.76-4.08-4.31-7.04-4.31-3.75,0-6.74,2.33-6.74,5.22,0,3.19,3.78,4.33,8.74,6.46,6.46,2.84,11.48,5.95,11.48,12.39,0,7.25-6.28,11.91-14.57,11.91-6.71,0-11.81-3.14-14.14-7.86Z"/>
        <path class="cls-1" d="M312.91,2.56h6.41v40.85h-6.41V2.56Z"/>
        <polygon class="cls-1" points="284.62 15.73 297.11 43.4 304.01 43.4 284.62 1.72 265.21 43.4 272.07 43.4 284.62 15.73"/>
        <polygon class="cls-1" points="106.25 15.73 118.74 43.4 125.64 43.4 106.25 1.72 86.84 43.4 93.7 43.4 106.25 15.73"/>
        <path class="cls-1" d="M93.79,43.4c3.31-2.96,7.67-4.78,12.46-4.78s9.15,1.82,12.46,4.78h6.92c-4.34-6.01-11.4-9.93-19.38-9.93s-15.04,3.92-19.38,9.93h6.92Z"/>
        <path class="cls-1" d="M272.14,43.4c3.31-2.96,7.67-4.78,12.46-4.78s9.15,1.82,12.46,4.78h6.92c-4.34-6.01-11.4-9.93-19.38-9.93s-15.04,3.92-19.38,9.93h6.92Z"/>
      </g>
      <path class="cls-1" d="M32.02,22.46L.08,36.88S0,36.95,0,37.01v7.89l48.24-22.44L0,0v7.86c0,.05.03.1.08.12l31.95,14.48Z"/>
      <path class="cls-1" d="M0,8s.01.06.03.09c3.41,3.83,5.49,8.86,5.49,14.39S3.44,33.03.03,36.86c-.02.02-.03.05-.03.09v7.96c6.96-5.02,11.49-13.19,11.49-22.43S6.96,5.06,0,.04v7.96Z"/>
      <path class="cls-1" d="M58.61,22.46l-31.81,14.36c-.13.06-.22.19-.22.34v7.74l48.24-22.44L26.59,0v7.71c0,.15.08.28.22.34l31.81,14.42Z"/>
      <path class="cls-1" d="M26.59,7.91c0,.09.03.17.09.24,3.37,3.82,5.44,8.83,5.44,14.32s-2.06,10.5-5.44,14.32c-.06.07-.09.15-.09.24v7.87c6.96-5.02,11.49-13.19,11.49-22.43S33.55,5.06,26.59.04v7.87Z"/>
      <g>
        <path class="cls-1" d="M332.1,36.35c0-4.46,3.7-8.17,8.15-8.17,2.04.02,4.01.95,5.45,2.4l-1.04,1.41c-1.14-1.17-2.74-1.99-4.48-1.99-3.19,0-6.27,2.76-6.27,6.35s3.05,6.33,6.3,6.33c1.79,0,3.32-.85,4.46-1.97l1.03,1.44c-1.32,1.31-3.1,2.33-5.44,2.33-4.41,0-8.16-3.63-8.16-8.13Z"/>
        <path class="cls-1" d="M358.69,44.28l-4.43-6.19h-2.96v6.19h-1.79v-15.87s4.67,0,4.67,0c2.94,0,5.34,2.26,5.34,5.06,0,2.06-1.41,3.83-3.34,4.41l4.71,6.4h-2.21ZM354.24,36.58c1.89,0,3.45-1.44,3.45-3.15,0-1.83-1.58-3.25-3.45-3.25h-2.95v6.39h2.95Z"/>
        <path class="cls-1" d="M379.9,28.12v16.16h-1.79v-10.77l-5.96,10.5h-.02l-5.97-10.52v10.79h-1.79v-16.16h.21l7.57,12.62,7.57-12.62h.2Z"/>
      </g>
    </g>
  </g>
</svg>
